Genre:Comedy | Romance 
Language:English
IMDb:http://www.imdb.com/title/tt1319746/
Source:HDTVRip 720p x264
..............................................
General
Complete name : My Fake Fiance 2009 HDTVRip.XVID.FEEL-FREE
Format : AVI
Format/Info : Audio Video Interleave
File size : 1.23 GiB
Duration : 1h 22mn
Overall bit rate : 2 133 Kbps
Writing library : VirtualDubMod build 2540/release
...............................................
Video
ID : 0
Format : MPEG-4 Visual
Format profile : AdvancedSimple@L5
Format settings, BVOP : Yes
Format settings, QPel : No
Format settings, GMC : No warppoints
Format settings, Matrix : Default (MPEG)
Codec ID : XVID
Codec ID/Hint : XviD
Duration : 1h 22mn
Bit rate : 1 899 Kbps
Width : 720 pixels
Height : 400 pixels
Display aspect ratio : 16:9
Frame rate : 25.000 fps
Resolution : 24 bits
Colorimetry : 4:2:0
Scan type : Progressive
Bits/(Pixel*Frame) : 0.264
Stream size : 1.10 GiB (89%)
Writing library : XviD 1.1.2 (UTC 2006-11-01)
...............................................
Audio
ID : 1
Format : MPEG Audio
Format version : Version 1
Format profile : Layer 3
Format settings, Mode : Joint stereo / MS Stereo
Codec ID : 55
Codec ID/Hint : MP3
Duration : 1h 22mn
Bit rate mode : Constant
Bit rate : 224 Kbps
Channel(s) : 2 channels
Sampling rate : 48.0 KHz
Resolution : 16 bits
Stream size : 132 MiB (11%)
Alignment : Aligned on interleaves
Interleave, duration : 40 ms (1.00 video frame)
Interleave, preload duration : 504 ms
...............................................
Plot:
Jennifer and Vince, virtual strangers, find themselves strapped for cash and decide to stage a fake engagement and wedding just for the gifts
.................................................


 
http://thepiratebay.org/user/hiest



...................................................

Screenshots:
 
http://www.starshare.ro/bitbucket/My%20Fake%20Fiance%202009%20HDTVRip.XVID.FEEL-FREE.avi_thumbs_%5B2010.08.23_17.22.06%5D.jpg
 
http://www.starshare.ro/bitbucket/My%20Fake%20Fiance%202009%20HDTVRip.XVID.FEEL-FREE.avi_snapshot_00.51.51_%5B2010.08.23_17.22.21%5D.jpg
 
http://www.starshare.ro/bitbucket/My%20Fake%20Fiance%202009%20HDTVRip.XVID.FEEL-FREE.avi_snapshot_01.06.04_%5B2010.08.23_17.22.24%5D.jpg
 
http://www.starshare.ro/bitbucket/My%20Fake%20Fiance%202009%20HDTVRip.XVID.FEEL-FREE.avi_snapshot_01.19.46_%5B2010.08.23_17.22.14%5D.jpg

........................................................